<?xml version="1.0" standalone="no"?>
<!DOCTYPE svg PUBLIC "-//W3C//DTD SVG 20010904//EN"
 "http://www.w3.org/TR/2001/REC-SVG-20010904/DTD/svg10.dtd">
<svg version="1.0" xmlns="http://www.w3.org/2000/svg"
 width="510.000000pt" height="532.000000pt" viewBox="0 0 510.000000 532.000000"
 preserveAspectRatio="xMidYMid meet">

<g transform="translate(0.000000,532.000000) scale(0.100000,-0.100000)"
fill="#000000" stroke="none">
<path d="M2675 2920 c-3 -5 -1 -10 4 -10 6 0 11 5 11 10 0 6 -2 10 -4 10 -3 0
-8 -4 -11 -10z"/>
<path d="M2715 2920 c-3 -5 -1 -10 4 -10 6 0 11 5 11 10 0 6 -2 10 -4 10 -3 0
-8 -4 -11 -10z"/>
<path d="M2828 2923 c7 -3 16 -2 19 1 4 3 -2 6 -13 5 -11 0 -14 -3 -6 -6z"/>
<path d="M2864 2914 c-19 -15 -19 -15 1 -6 11 5 27 12 35 15 13 5 13 6 -1 6
-8 1 -24 -6 -35 -15z"/>
<path d="M2944 2918 c-5 -7 -3 -8 6 -3 7 4 16 2 21 -6 7 -11 9 -10 9 4 0 19
-25 23 -36 5z"/>
<path d="M2989 2904 c-3 -10 1 -35 7 -54 l13 -35 0 35 c0 19 -4 44 -8 54 -8
20 -8 20 -12 0z"/>
<path d="M2821 2890 c0 -14 4 -32 9 -40 8 -12 10 -12 9 5 0 11 -4 29 -9 40 -8
18 -9 18 -9 -5z"/>
<path d="M2903 2853 c0 -54 0 -55 4 -10 3 33 8 45 16 40 7 -4 6 0 -2 10 -7 9
-14 17 -16 17 -1 0 -2 -26 -2 -57z"/>
<path d="M2233 2860 c0 -25 2 -35 4 -22 2 12 2 32 0 45 -2 12 -4 2 -4 -23z"/>
<path d="M2757 2889 c7 -7 15 -10 18 -7 3 3 -2 9 -12 12 -14 6 -15 5 -6 -5z"/>
<path d="M2676 2864 c-5 -14 -4 -15 9 -4 17 14 19 20 6 20 -5 0 -12 -7 -15
-16z"/>
<path d="M2763 2864 c3 -4 1 -16 -5 -28 -10 -19 -10 -20 5 -7 19 16 23 41 5
41 -6 0 -8 -3 -5 -6z"/>
<path d="M2690 2842 c0 -11 27 -42 37 -42 3 0 -2 10 -13 23 -10 12 -20 24 -21
26 -2 2 -3 -1 -3 -7z"/>
<path d="M2674 2762 c2 -9 8 -18 14 -20 17 -5 15 25 -2 31 -9 4 -13 0 -12 -11z"/>
<path d="M2649 2491 c-68 -14 -117 -64 -140 -143 l-8 -28 55 0 c47 0 54 3 54
19 0 37 42 73 83 73 72 0 103 -59 69 -134 -11 -24 -67 -94 -130 -161 -103
-110 -112 -122 -112 -158 l0 -39 190 0 190 0 0 40 0 40 -120 0 c-73 0 -120 4
-120 10 0 5 29 41 65 78 128 136 155 180 155 255 0 104 -107 172 -231 148z"/>
<path d="M3118 2491 c-73 -15 -124 -66 -143 -143 -7 -28 -7 -28 44 -28 45 0
51 3 57 24 18 72 124 93 152 31 31 -67 5 -116 -147 -275 -90 -94 -100 -109
-101 -142 l0 -38 193 0 193 0 -4 40 -4 40 -119 0 c-65 0 -119 3 -119 6 0 3 34
43 76 87 115 123 148 178 148 241 0 64 -26 113 -74 137 -43 22 -103 29 -152
20z"/>
<path d="M1844 2481 c3 -5 15 -7 26 -4 28 7 25 13 -6 13 -14 0 -23 -4 -20 -9z"/>
<path d="M1975 2483 c11 -3 27 -10 35 -17 13 -10 13 -9 1 7 -7 9 -23 16 -35
16 -20 -1 -20 -2 -1 -6z"/>
<path d="M1833 2443 c-7 -2 -13 -13 -13 -24 0 -19 0 -19 22 0 11 11 26 18 31
14 6 -3 7 -1 3 5 -7 12 -22 14 -43 5z"/>
<path d="M2058 2413 c7 -3 16 -2 19 1 4 3 -2 6 -13 5 -11 0 -14 -3 -6 -6z"/>
<path d="M1740 2386 c0 -14 29 -30 38 -21 3 3 0 5 -7 5 -7 0 -10 4 -7 9 3 5
-1 11 -9 15 -9 3 -15 0 -15 -8z"/>
<path d="M1825 2376 c-18 -17 -25 -32 -22 -48 4 -21 4 -21 6 -2 0 12 13 33 27
48 34 33 24 34 -11 2z"/>
<path d="M1977 2393 c-2 -5 2 -19 9 -33 10 -18 14 -20 14 -8 0 9 -5 20 -10 23
-6 4 -8 11 -5 16 4 5 4 9 1 9 -3 0 -7 -3 -9 -7z"/>
<path d="M2040 2387 c0 -10 -5 -15 -11 -12 -13 8 12 -37 26 -47 5 -4 10 -15
10 -24 0 -10 6 -18 13 -20 7 -1 8 0 2 3 -14 7 -12 23 3 21 8 -2 12 10 12 37 0
34 -3 40 -20 38 -11 -1 -23 4 -27 10 -5 8 -8 6 -8 -6z m47 -42 c0 -28 -3 -33
-14 -23 -8 6 -12 17 -9 25 3 8 2 11 -3 8 -5 -3 -12 -1 -15 4 -4 5 4 12 16 14
13 2 23 5 24 6 0 0 1 -15 1 -34z"/>
<path d="M1730 2340 c0 -15 6 -20 28 -19 16 1 20 3 10 6 -10 2 -18 11 -18 19
0 8 -4 14 -10 14 -5 0 -10 -9 -10 -20z"/>
<path d="M2264 2325 c-35 -53 27 -106 81 -71 47 31 23 96 -35 96 -21 0 -35 -8
-46 -25z"/>
<path d="M1985 2279 c-4 -6 -4 -13 -1 -16 3 -4 6 -1 6 6 0 7 5 9 12 5 7 -4 8
-3 4 4 -9 15 -13 15 -21 1z"/>
<path d="M2056 2262 c-2 -4 -1 -14 3 -21 6 -9 10 -7 14 8 5 20 -7 29 -17 13z"/>
<path d="M1930 2205 c-11 -13 -10 -14 4 -9 9 3 16 10 16 15 0 13 -6 11 -20 -6z"/>
<path d="M2013 2193 c0 -23 0 -23 18 -7 11 9 19 18 19 19 0 2 -8 5 -19 8 -14
3 -18 -1 -18 -20z"/>
<path d="M1881 2156 c-17 -19 -20 -26 -9 -32 7 -4 10 -4 6 1 -4 4 -1 14 7 21
15 15 29 19 21 6 -2 -4 0 -14 6 -22 8 -12 9 -11 4 4 -5 14 -2 17 10 12 13 -5
14 -4 6 7 -7 8 -9 17 -5 20 3 4 0 7 -9 7 -8 0 -25 -11 -37 -24z"/>
<path d="M1966 2161 c-4 -5 -2 -12 3 -15 5 -4 12 -2 15 3 4 5 2 12 -3 15 -5 4
-12 2 -15 -3z"/>
<path d="M1946 2115 c-11 -8 -15 -15 -10 -15 6 0 19 7 30 15 10 8 15 14 9 14
-5 0 -19 -6 -29 -14z"/>
<path d="M1902 2070 c-17 -27 -15 -35 4 -16 8 9 14 21 12 26 -2 6 -9 1 -16
-10z"/>
<path d="M1776 2041 c-18 -18 -24 -31 -17 -36 6 -3 14 2 18 12 4 10 15 26 26
36 11 9 16 17 10 17 -5 0 -22 -13 -37 -29z"/>
<path d="M2270 2010 c-24 -24 -25 -38 -4 -68 18 -26 65 -30 88 -6 23 22 20 60
-6 78 -30 21 -54 20 -78 -4z"/>
<path d="M2096 1991 c-8 -12 3 -41 15 -41 12 0 12 37 0 45 -5 3 -12 1 -15 -4z"/>
<path d="M1870 1979 c0 -5 5 -7 10 -4 6 3 10 8 10 11 0 2 -4 4 -10 4 -5 0 -10
-5 -10 -11z"/>
<path d="M1780 1929 c-19 -4 39 -7 129 -8 90 0 162 2 158 5 -8 9 -243 11 -287
3z"/>
<path d="M2080 1930 c0 -6 7 -10 15 -10 8 0 15 2 15 4 0 2 -7 6 -15 10 -8 3
-15 1 -15 -4z"/>
<path d="M896 1514 c-8 -22 -4 -25 11 -9 7 8 9 16 4 19 -5 3 -12 -1 -15 -10z"/>
<path d="M953 1519 c15 -9 16 -13 5 -27 -12 -15 -11 -16 5 -3 13 10 15 17 6
27 -6 8 -17 14 -23 14 -6 0 -3 -5 7 -11z"/>
<path d="M980 1479 c-7 -11 -9 -23 -6 -27 3 -3 6 0 6 7 0 8 6 11 16 7 13 -5
14 -4 6 7 -7 8 -9 17 -5 20 3 4 3 7 0 7 -3 0 -11 -9 -17 -21z"/>
<path d="M842 1486 c4 -5 2 -18 -4 -30 -11 -20 -10 -20 8 -6 10 8 20 15 22 16
1 1 -6 7 -15 15 -10 7 -15 10 -11 5z"/>
<path d="M1010 1486 c0 -2 8 -10 18 -17 15 -13 16 -12 3 4 -13 16 -21 21 -21
13z"/>
<path d="M810 1427 c0 -9 4 -18 9 -21 5 -4 8 1 7 9 -3 21 -16 31 -16 12z"/>
<path d="M632 1403 c32 -2 84 -2 116 0 31 2 5 3 -58 3 -63 0 -89 -1 -58 -3z"/>
<path d="M1045 1401 c-3 -5 -1 -12 5 -16 5 -3 10 1 10 9 0 18 -6 21 -15 7z"/>
<path d="M810 1374 c0 -8 5 -12 10 -9 6 3 10 10 10 16 0 5 -4 9 -10 9 -5 0
-10 -7 -10 -16z"/>
<path d="M827 1333 c3 -7 9 -10 14 -7 14 8 11 21 -5 21 -8 0 -12 -6 -9 -14z"/>
<path d="M1020 1331 c0 -10 -6 -22 -12 -24 -10 -4 -10 -6 -1 -6 17 -1 36 36
23 44 -5 3 -10 -3 -10 -14z"/>
<path d="M850 1311 c0 -11 5 -13 33 -15 6 -1 15 -5 19 -11 4 -5 10 -6 15 -2 9
10 -17 28 -29 20 -5 -2 -15 1 -23 7 -11 9 -15 9 -15 1z"/>
<path d="M2797 642 c-10 -10 -17 -23 -17 -28 0 -5 5 -1 11 9 6 10 20 22 32 27
15 6 17 9 6 9 -9 1 -23 -7 -32 -17z"/>
<path d="M2935 649 c-4 -6 -5 -12 -2 -15 2 -3 7 2 10 11 7 17 1 20 -8 4z"/>
<path d="M3021 600 c0 -35 4 -60 10 -60 6 0 8 4 5 9 -8 12 4 71 14 71 4 0 12
-10 18 -22 6 -13 11 -17 11 -10 1 7 -11 25 -26 39 -16 15 -22 23 -14 18 10 -5
12 -4 7 3 -16 26 -24 9 -25 -48z"/>
<path d="M3190 656 c0 -2 9 -6 20 -9 11 -3 18 -1 14 4 -5 9 -34 13 -34 5z"/>
<path d="M3273 639 c-2 -19 0 -19 10 -6 7 9 26 18 42 20 25 3 23 4 -10 6 -35
1 -41 -2 -42 -20z"/>
<path d="M4205 650 c27 -12 43 -12 25 0 -8 5 -22 9 -30 9 -10 0 -8 -3 5 -9z"/>
<path d="M4292 635 c0 -16 2 -22 5 -12 2 9 2 23 0 30 -3 6 -5 -1 -5 -18z"/>
<path d="M2850 641 c0 -5 5 -13 10 -16 6 -3 10 -2 10 4 0 5 -4 13 -10 16 -5 3
-10 2 -10 -4z"/>
<path d="M4165 640 c-3 -5 -1 -10 4 -10 6 0 11 5 11 10 0 6 -2 10 -4 10 -3 0
-8 -4 -11 -10z"/>
<path d="M3112 615 c0 -16 2 -22 5 -12 2 9 2 23 0 30 -3 6 -5 -1 -5 -18z"/>
<path d="M4334 631 c4 -5 1 -12 -4 -14 -6 -3 -5 -4 2 -3 15 3 23 26 8 26 -6 0
-9 -4 -6 -9z"/>
<path d="M2962 605 c6 -14 13 -24 14 -22 6 6 -9 47 -17 47 -5 0 -3 -11 3 -25z"/>
<path d="M4310 593 c8 -3 25 -17 38 -30 27 -29 29 -17 3 15 -11 12 -27 22 -38
21 -14 0 -15 -2 -3 -6z"/>
<path d="M2920 575 c14 -17 55 -21 45 -4 -4 6 -13 8 -21 5 -8 -3 -14 -1 -14 4
0 6 -5 10 -11 10 -8 0 -8 -5 1 -15z"/>
<path d="M3156 575 c-3 -8 -1 -15 4 -15 6 0 10 7 10 15 0 8 -2 15 -4 15 -2 0
-6 -7 -10 -15z"/>
<path d="M4241 574 c0 -11 3 -14 6 -6 3 7 2 16 -1 19 -3 4 -6 -2 -5 -13z"/>
<path d="M3109 578 c-6 -21 -5 -38 2 -38 5 0 9 9 9 20 0 16 -7 28 -11 18z"/>
<path d="M3279 578 c-9 -30 -4 -34 35 -35 l41 -1 -35 7 c-20 4 -34 12 -32 19
2 10 -6 18 -9 10z"/>
<path d="M4293 565 c-3 -9 -3 -18 -1 -21 3 -3 8 4 11 16 6 23 -1 27 -10 5z"/>
<path d="M2844 559 c-3 -6 -15 -9 -25 -6 -11 3 -19 1 -19 -4 0 -14 34 -11 56
6 10 8 14 15 7 15 -6 0 -15 -5 -19 -11z"/>
<path d="M2980 555 c0 -8 4 -15 10 -15 5 0 7 7 4 15 -4 8 -8 15 -10 15 -2 0
-4 -7 -4 -15z"/>
<path d="M3220 560 c0 -5 -12 -10 -27 -11 -16 0 -22 -3 -15 -6 18 -7 62 5 62
17 0 6 -4 10 -10 10 -5 0 -10 -4 -10 -10z"/>
<path d="M4172 560 c2 -8 18 -16 34 -17 18 -1 22 0 9 4 -11 3 -26 10 -34 17
-11 9 -13 8 -9 -4z"/>
<path d="M3380 548 c0 -4 16 -8 35 -8 19 0 35 2 35 4 0 2 -16 6 -35 8 -19 2
-35 0 -35 -4z"/>
</g>
</svg>
