<?xml version="1.0" standalone="no"?>
<!DOCTYPE svg PUBLIC "-//W3C//DTD SVG 20010904//EN"
 "http://www.w3.org/TR/2001/REC-SVG-20010904/DTD/svg10.dtd">
<svg version="1.0" xmlns="http://www.w3.org/2000/svg"
 width="383.000000pt" height="634.000000pt" viewBox="0 0 383.000000 634.000000"
 preserveAspectRatio="xMidYMid meet">

<g transform="translate(0.000000,634.000000) scale(0.100000,-0.100000)"
fill="#000000" stroke="none">
<path d="M0 6240 l0 -100 1722 0 1722 0 166 -165 c113 -112 173 -165 188 -165
21 0 22 3 22 127 l0 127 -37 38 -37 38 37 0 37 0 0 100 0 100 -1910 0 -1910 0
0 -100z m3254 71 c13 -14 16 -33 14 -72 l-3 -54 -40 0 -40 0 -3 59 c-2 47 0
61 15 72 25 18 37 17 57 -5z m-2980 -22 c19 -22 25 -38 20 -53 -16 -55 -73
-66 -111 -22 -27 32 -29 53 -7 84 23 33 66 29 98 -9z m234 -36 l-3 -68 -49 -3
c-56 -4 -66 5 -66 57 0 49 33 81 82 81 l39 0 -3 -67z m2430 51 c18 -13 21 -19
11 -30 -6 -8 -22 -14 -35 -14 -21 0 -24 -5 -24 -35 0 -21 -5 -35 -12 -35 -13
0 -88 86 -88 100 0 28 113 39 148 14z m162 -54 l0 -60 -60 0 c-33 0 -60 3 -60
7 0 10 102 113 112 113 4 0 8 -27 8 -60z m288 41 c8 -5 12 -23 10 -47 -3 -34
-6 -39 -28 -39 -22 0 -25 5 -28 39 -3 34 8 56 28 56 3 0 11 -4 18 -9z m87 -23
c8 -18 14 -26 15 -17 0 9 8 19 18 23 9 3 25 11 34 18 15 10 21 10 34 -4 15
-15 16 -19 3 -39 -14 -20 -13 -25 17 -57 18 -19 30 -41 27 -49 -4 -9 0 -11 11
-7 21 8 20 -4 -1 -28 -9 -10 -11 -18 -6 -18 6 0 16 7 23 15 7 8 17 15 22 15 6
0 8 -7 4 -15 -4 -10 1 -15 15 -15 28 0 35 -28 12 -51 -22 -23 -53 -16 -53 11
0 12 -9 20 -22 22 -16 2 -23 10 -22 24 0 14 -4 20 -13 17 -16 -6 -75 58 -68
74 5 14 -16 18 -72 14 -26 -2 -33 2 -38 21 -8 31 10 78 30 78 9 0 22 -15 30
-32z m186 6 c9 -26 -10 -68 -34 -72 -9 -2 -17 1 -17 7 0 6 8 11 18 12 13 0 12
2 -5 9 -22 9 -32 48 -16 64 13 13 46 1 54 -20z m-721 -49 c0 -14 -7 -21 -20
-22 -15 -1 -20 4 -20 22 0 18 5 23 20 22 13 -1 20 -8 20 -22z"/>
<path d="M3216 6263 c-6 -14 -5 -15 5 -6 7 7 10 15 7 18 -3 3 -9 -2 -12 -12z"/>
<path d="M3360 6250 c0 -16 5 -30 10 -30 6 0 10 14 10 30 0 17 -4 30 -10 30
-5 0 -10 -13 -10 -30z"/>
<path d="M3434 6266 c-8 -20 -1 -47 11 -49 6 -1 11 13 13 31 3 32 -14 45 -24
18z"/>
<path d="M3541 6266 c-8 -10 -9 -16 -1 -21 5 -3 13 1 16 10 9 22 -1 29 -15 11z"/>
<path d="M3500 6235 c-10 -12 -10 -15 3 -15 19 0 31 16 18 24 -5 3 -14 -1 -21
-9z"/>
<path d="M3553 6185 c-6 -7 -8 -17 -4 -24 5 -8 12 -6 25 8 13 14 14 20 4 24
-7 2 -18 -1 -25 -8z"/>
<path d="M3592 6158 c-7 -7 -12 -16 -12 -21 0 -5 7 -1 16 8 9 9 14 18 12 20
-2 3 -10 -1 -16 -7z"/>
<path d="M3671 6053 c0 -11 3 -13 6 -5 2 6 9 10 14 6 5 -3 9 0 9 5 0 6 -7 11
-15 11 -8 0 -15 -8 -14 -17z"/>
<path d="M3620 6266 c0 -9 5 -16 10 -16 6 0 10 4 10 9 0 6 -4 13 -10 16 -5 3
-10 -1 -10 -9z"/>
<path d="M1551 5303 c1 -26 3 -41 6 -31 2 9 15 19 29 22 36 9 30 50 -8 54 -27
3 -28 2 -27 -45z m44 17 c0 -22 -29 -18 -33 3 -3 14 1 18 15 15 10 -2 18 -10
18 -18z"/>
<path d="M1730 5305 c0 -25 5 -45 10 -45 6 0 10 5 10 12 0 9 3 9 12 0 20 -20
32 -13 14 7 -11 12 -14 21 -7 26 6 3 11 11 11 17 0 7 -6 6 -15 -2 -13 -10 -15
-9 -15 9 0 11 -4 21 -10 21 -5 0 -10 -20 -10 -45z"/>
<path d="M1954 5335 c-7 -18 3 -35 22 -35 8 0 14 -7 14 -16 0 -11 -6 -15 -20
-11 -11 3 -18 1 -14 -4 3 -5 12 -9 20 -9 10 0 14 -13 14 -47 0 -46 0 -46 20
-28 23 21 22 21 44 -22 9 -18 21 -33 26 -33 18 0 20 20 5 49 -19 39 -19 41 7
41 19 0 20 1 5 18 -8 9 -17 33 -19 52 -2 23 -8 35 -18 35 -8 0 -18 7 -22 15
-5 10 -7 7 -8 -10 l-1 -25 -16 23 c-17 25 -51 29 -59 7z m36 -10 c0 -8 -4 -15
-9 -15 -13 0 -22 16 -14 24 11 11 23 6 23 -9z m86 -93 c-20 -4 -20 -19 -1 -52
17 -29 18 -40 7 -40 -5 0 -17 18 -27 40 -17 38 -19 39 -37 24 -17 -16 -18 -15
-18 52 l0 68 46 -44 c32 -32 41 -46 30 -48z m-6 55 c0 -20 -1 -20 -16 -5 -9 9
-13 21 -9 27 10 16 25 3 25 -22z"/>
<path d="M1670 5315 c-26 -32 15 -75 44 -45 8 9 6 11 -10 6 -25 -8 -40 17 -20
33 9 7 17 7 26 -2 12 -10 12 -9 1 6 -16 21 -25 21 -41 2z"/>
<path d="M1812 5321 c-23 -14 -10 -56 18 -58 l25 -3 -25 12 -25 12 27 4 c24 3
27 6 18 23 -12 21 -18 23 -38 10z m23 -11 c3 -5 -1 -10 -10 -10 -9 0 -13 5
-10 10 3 6 8 10 10 10 2 0 7 -4 10 -10z"/>
<path d="M1871 5291 c2 -30 3 -32 6 -8 2 15 9 27 14 27 5 0 9 4 9 8 0 5 -7 9
-15 9 -11 0 -15 -10 -14 -36z"/>
<path d="M2112 5321 c-21 -13 -11 -55 15 -59 26 -4 41 31 23 53 -14 17 -20 18
-38 6z m28 -32 c0 -10 -7 -19 -15 -19 -15 0 -21 31 -9 43 11 10 24 -3 24 -24z"/>
<path d="M2176 5300 c7 -39 11 -46 21 -37 3 4 -1 22 -10 40 l-17 32 6 -35z"/>
<path d="M2207 5324 c-11 -11 -8 -36 3 -29 6 3 10 -3 10 -14 0 -12 4 -21 10
-21 11 0 25 48 16 57 -3 4 -6 -5 -7 -18 -1 -24 -1 -24 -13 4 -7 15 -15 24 -19
21z"/>
<path d="M1632 5290 c0 -19 2 -27 5 -17 2 9 2 25 0 35 -3 9 -5 1 -5 -18z"/>
<path d="M1351 4783 c1 -27 3 -40 6 -30 2 9 13 17 23 17 9 0 23 7 30 15 17 20
-3 45 -36 45 -22 0 -24 -4 -23 -47z m47 15 c-3 -7 -11 -13 -18 -13 -7 0 -15 6
-17 13 -3 7 4 12 17 12 13 0 20 -5 18 -12z"/>
<path d="M1431 4788 c-1 -27 4 -48 9 -48 12 0 12 47 0 75 -6 15 -9 8 -9 -27z"/>
<path d="M1531 4786 c-1 -38 2 -47 11 -38 8 8 15 9 25 1 9 -8 13 -8 13 -1 0 6
-5 14 -11 18 -8 4 -8 9 0 17 6 6 11 16 11 21 0 6 -5 5 -12 -2 -18 -18 -26 -15
-31 11 -2 12 -5 0 -6 -27z"/>
<path d="M1763 4823 c-21 -8 -15 -33 12 -45 14 -6 25 -16 25 -21 0 -5 -11 -7
-25 -5 -14 3 -25 1 -25 -3 0 -5 14 -9 30 -9 39 0 43 36 5 46 -14 3 -25 11 -25
16 0 6 11 8 25 6 28 -6 34 6 9 16 -9 3 -16 6 -17 5 -1 0 -8 -3 -14 -6z"/>
<path d="M1832 4785 c1 -27 3 -38 5 -22 2 15 10 27 18 27 8 0 16 -12 18 -27 4
-21 4 -19 3 7 -1 24 -6 35 -16 35 -8 0 -18 7 -22 15 -4 8 -6 -7 -6 -35z"/>
<path d="M2100 4785 c0 -25 4 -45 9 -45 10 0 23 69 15 82 -13 21 -24 4 -24
-37z"/>
<path d="M2176 4822 c-8 -13 5 -82 15 -82 5 0 9 20 9 45 0 41 -11 58 -24 37z"/>
<path d="M2330 4815 c0 -8 -3 -14 -7 -14 -25 4 -33 -4 -33 -31 0 -27 3 -30 30
-30 29 0 30 2 30 45 0 25 -4 45 -10 45 -5 0 -10 -7 -10 -15z m0 -45 c0 -11 -7
-20 -15 -20 -8 0 -15 9 -15 20 0 11 7 20 15 20 8 0 15 -9 15 -20z"/>
<path d="M2443 4785 c0 -27 2 -38 4 -22 2 15 2 37 0 50 -2 12 -4 0 -4 -28z"/>
<path d="M1470 4795 c-26 -31 14 -75 43 -46 9 9 5 11 -12 9 -30 -4 -40 21 -12
29 11 3 18 9 15 14 -8 13 -20 11 -34 -6z"/>
<path d="M1611 4800 c-20 -12 -9 -55 14 -56 15 -1 16 0 3 3 -27 6 -22 23 7 23
17 0 23 4 19 14 -7 19 -27 26 -43 16z m26 -16 c-3 -3 -12 -4 -19 -1 -8 3 -5 6
6 6 11 1 17 -2 13 -5z"/>
<path d="M1671 4771 c2 -30 3 -32 6 -8 2 15 9 27 14 27 5 0 9 4 9 8 0 5 -7 9
-15 9 -11 0 -15 -10 -14 -36z"/>
<path d="M1913 4803 c-7 -3 -13 -18 -13 -34 0 -24 4 -29 24 -29 25 0 39 20 30
44 -7 17 -24 25 -41 19z m27 -33 c0 -11 -7 -20 -15 -20 -8 0 -15 9 -15 20 0
11 7 20 15 20 8 0 15 -9 15 -20z"/>
<path d="M1975 4790 c2 -14 5 -31 5 -37 0 -21 17 -15 25 10 l8 22 4 -22 c8
-40 34 -19 32 25 0 14 -2 13 -9 -3 -8 -19 -8 -19 -18 5 l-10 25 -10 -25 -10
-25 -11 25 -12 25 6 -25z"/>
<path d="M2220 4791 c-14 -27 -2 -51 26 -51 20 0 24 5 24 29 0 17 -6 31 -16
35 -22 8 -22 8 -34 -13z m40 -21 c0 -11 -7 -20 -15 -20 -8 0 -15 9 -15 20 0
11 7 20 15 20 8 0 15 -9 15 -20z"/>
<path d="M2375 4800 c-3 -5 2 -10 12 -11 15 0 14 -2 -5 -11 -29 -14 -23 -32
11 -36 23 -3 27 1 27 20 0 36 -31 61 -45 38z m25 -40 c0 -5 -4 -10 -10 -10 -5
0 -10 5 -10 10 0 6 5 10 10 10 6 0 10 -4 10 -10z"/>
<path d="M2130 4780 c0 -8 5 -22 10 -30 9 -13 11 -13 20 0 5 8 10 22 10 30 0
13 -1 13 -10 0 -9 -13 -11 -13 -20 0 -9 13 -10 13 -10 0z"/>
<path d="M1562 4265 c0 -35 2 -44 8 -30 7 18 8 19 15 3 4 -10 12 -18 17 -18 6
0 5 6 -2 15 -7 8 -9 22 -6 31 5 14 4 15 -8 5 -12 -10 -15 -7 -19 16 -2 16 -4
6 -5 -22z"/>
<path d="M1853 4265 c0 -27 2 -38 4 -22 5 34 33 36 33 2 0 -14 5 -25 10 -25 6
0 10 6 10 14 0 27 -12 46 -30 46 -10 0 -21 8 -23 18 -3 9 -5 -5 -4 -33z"/>
<path d="M1370 4260 c0 -22 5 -40 10 -40 6 0 10 6 10 14 0 8 10 16 23 18 23 3
32 38 10 45 -7 3 -9 -3 -6 -16 4 -15 1 -21 -11 -21 -9 0 -16 8 -16 20 0 11 -4
20 -10 20 -5 0 -10 -18 -10 -40z"/>
<path d="M1770 4285 c0 -9 11 -21 25 -27 14 -6 25 -15 25 -20 0 -13 -38 -9
-43 5 -3 7 -6 5 -6 -5 -1 -13 7 -18 29 -18 23 0 30 5 30 19 0 11 -9 23 -21 26
-12 4 -18 12 -15 21 3 8 -1 14 -9 14 -8 0 -15 -7 -15 -15z"/>
<path d="M1815 4290 c3 -5 8 -10 11 -10 2 0 4 5 4 10 0 6 -5 10 -11 10 -5 0
-7 -4 -4 -10z"/>
<path d="M2133 4260 c0 -25 2 -35 4 -22 2 12 2 32 0 45 -2 12 -4 2 -4 -23z"/>
<path d="M1462 4250 c0 -19 2 -27 5 -17 2 9 2 25 0 35 -3 9 -5 1 -5 -18z"/>
<path d="M1490 4250 c0 -25 4 -30 25 -30 14 0 25 4 25 9 0 5 -9 7 -20 4 -16
-4 -20 0 -20 17 0 17 4 21 20 17 11 -3 20 -1 20 4 0 5 -11 9 -25 9 -21 0 -25
-5 -25 -30z"/>
<path d="M1624 4265 c-10 -24 4 -45 28 -44 17 1 18 2 6 6 -10 2 -18 13 -18 24
0 21 16 26 23 7 2 -7 8 -10 12 -6 11 11 -4 28 -26 28 -11 0 -22 -7 -25 -15z"/>
<path d="M1690 4250 c0 -16 5 -30 10 -30 6 0 10 11 10 24 0 13 6 27 13 29 6 3
2 6 -10 6 -19 1 -23 -4 -23 -29z"/>
<path d="M1924 4266 c-10 -26 4 -48 28 -44 17 2 23 10 23 28 0 18 -6 26 -23
28 -13 2 -25 -3 -28 -12z m42 -7 c10 -17 -13 -36 -27 -22 -12 12 -4 33 11 33
5 0 12 -5 16 -11z"/>
<path d="M1998 4250 c5 -35 21 -40 29 -9 6 21 6 21 19 -2 l12 -24 12 29 c6 16
8 31 6 34 -3 3 -8 -3 -12 -12 -6 -15 -7 -15 -19 1 -13 17 -14 16 -24 -7 -9
-24 -10 -24 -10 -2 -1 12 -5 22 -9 22 -5 0 -7 -13 -4 -30z"/>
<path d="M2164 4265 c-4 -8 -4 -22 0 -30 6 -17 42 -20 51 -5 4 6 -4 9 -17 7
-15 -1 -23 3 -23 13 0 10 8 14 23 13 13 -2 21 1 17 7 -9 15 -45 12 -51 -5z"/>
<path d="M2237 4274 c-4 -4 -7 -18 -7 -31 0 -21 4 -24 28 -21 21 2 27 8 27 28
0 18 -6 26 -20 28 -12 2 -24 0 -28 -4z m33 -24 c0 -11 -7 -20 -15 -20 -8 0
-15 9 -15 20 0 11 7 20 15 20 8 0 15 -9 15 -20z"/>
<path d="M2300 4250 c0 -16 5 -30 10 -30 6 0 10 11 10 25 0 14 5 25 10 25 6 0
10 -11 10 -25 0 -14 5 -25 10 -25 6 0 10 14 10 30 0 27 -3 30 -30 30 -27 0
-30 -3 -30 -30z"/>
<path d="M2380 4265 c0 -8 5 -15 11 -15 5 0 8 4 4 9 -3 5 3 12 12 14 14 4 13
5 -4 6 -14 1 -23 -5 -23 -14z"/>
<path d="M2410 4239 c0 -6 -9 -8 -22 -4 -18 6 -20 4 -12 -5 7 -6 20 -10 30 -8
19 3 32 28 15 28 -6 0 -11 -5 -11 -11z"/>
<path d="M1357 3783 c-4 -3 -6 -27 -6 -52 1 -25 4 -36 6 -23 3 15 11 22 28 22
23 0 42 27 28 41 -13 11 -49 20 -56 12z m43 -28 c0 -8 -9 -15 -20 -15 -11 0
-20 7 -20 15 0 8 9 15 20 15 11 0 20 -7 20 -15z"/>
<path d="M1833 3740 c0 -31 2 -41 4 -22 3 18 10 32 18 32 8 0 15 -14 18 -32 4
-32 4 -32 5 5 2 30 -1 37 -17 37 -11 0 -22 8 -24 18 -3 9 -4 -8 -4 -38z"/>
<path d="M2106 3782 c-3 -3 -6 -25 -6 -49 0 -46 12 -53 51 -33 19 11 25 45 11
66 -8 13 -48 24 -56 16z m48 -27 c8 -21 -3 -45 -20 -45 -9 0 -14 11 -14 30 0
32 23 42 34 15z"/>
<path d="M1531 3736 c-1 -45 0 -48 13 -30 14 18 15 18 21 2 4 -10 12 -18 17
-18 6 0 3 11 -5 24 -12 17 -13 26 -4 35 8 8 8 11 -1 11 -7 0 -12 -4 -12 -10 0
-20 -19 -10 -23 13 -2 12 -5 0 -6 -27z"/>
<path d="M1750 3760 c0 -11 4 -20 8 -20 5 0 17 -7 28 -16 18 -15 18 -15 -8
-11 -30 4 -38 -7 -13 -17 42 -16 61 27 20 46 -33 15 -32 32 1 24 17 -5 23 -3
19 4 -3 5 -17 10 -31 10 -17 0 -24 -5 -24 -20z"/>
<path d="M2293 3735 c0 -27 2 -38 4 -22 2 15 2 37 0 50 -2 12 -4 0 -4 -28z"/>
<path d="M1430 3724 c0 -21 4 -33 10 -29 6 3 10 19 10 36 0 16 -4 29 -10 29
-5 0 -10 -16 -10 -36z"/>
<path d="M1467 3753 c-21 -21 10 -72 34 -57 9 5 5 10 -10 16 -28 10 -22 34 8
31 13 -2 20 1 16 7 -7 11 -38 13 -48 3z"/>
<path d="M1607 3753 c-4 -3 -7 -16 -7 -29 0 -24 28 -40 44 -24 7 7 3 10 -13
10 -12 0 -19 4 -16 10 3 6 15 10 25 10 13 0 17 5 14 15 -6 15 -35 20 -47 8z
m30 -9 c-3 -3 -12 -4 -19 -1 -8 3 -5 6 6 6 11 1 17 -2 13 -5z"/>
<path d="M1671 3723 c1 -28 3 -31 6 -13 3 14 10 31 15 38 8 9 6 12 -6 12 -12
0 -16 -9 -15 -37z"/>
<path d="M1900 3731 c0 -34 26 -49 48 -27 21 21 6 56 -24 56 -20 0 -24 -5 -24
-29z m40 -1 c0 -11 -7 -20 -15 -20 -8 0 -15 9 -15 20 0 11 7 20 15 20 8 0 15
-9 15 -20z"/>
<path d="M1976 3730 c7 -39 11 -46 21 -37 3 4 -1 22 -10 40 l-17 32 6 -35z"/>
<path d="M2000 3739 c0 -11 4 -18 9 -15 5 3 12 -4 15 -17 7 -21 7 -21 16 -2 5
11 9 29 9 40 l0 20 -9 -20 c-7 -18 -8 -19 -15 -2 -10 23 -25 22 -25 -4z"/>
<path d="M2193 3725 c0 -22 2 -30 4 -17 2 12 2 30 0 40 -3 9 -5 -1 -4 -23z"/>
<path d="M2220 3751 c0 -5 10 -7 23 -5 l22 5 -23 -12 c-28 -15 -25 -44 6 -45
19 -1 22 4 22 32 0 30 -3 34 -25 34 -14 0 -25 -4 -25 -9z m40 -31 c0 -5 -7
-10 -16 -10 -8 0 -12 5 -9 10 3 6 10 10 16 10 5 0 9 -4 9 -10z"/>
<path d="M2327 3754 c-12 -12 -8 -41 8 -54 20 -17 47 5 43 34 -3 21 -37 34
-51 20z m40 -19 c7 -20 -2 -29 -21 -22 -9 4 -13 13 -10 22 8 19 23 19 31 0z"/>
<path d="M2396 3744 c-8 -22 12 -57 30 -50 8 3 14 1 14 -4 0 -6 -10 -10 -22
-10 -18 0 -20 -2 -9 -9 26 -17 41 -1 41 45 0 40 -2 44 -24 44 -13 0 -27 -7
-30 -16z m44 -14 c0 -11 -7 -20 -15 -20 -8 0 -15 9 -15 20 0 11 7 20 15 20 8
0 15 -9 15 -20z"/>
<path d="M1510 3225 c0 -25 5 -45 10 -45 6 0 10 5 10 11 0 9 4 8 14 0 10 -9
13 -5 12 18 -1 22 -4 27 -13 19 -10 -8 -13 -4 -13 16 0 14 -4 26 -10 26 -5 0
-10 -20 -10 -45z"/>
<path d="M1813 3220 c0 -31 2 -41 4 -22 3 18 10 32 18 32 8 0 15 -14 18 -32 4
-32 4 -32 5 5 2 30 -1 37 -17 37 -11 0 -22 8 -24 18 -3 9 -4 -8 -4 -38z"/>
<path d="M2091 3242 c-7 -16 -9 -41 -5 -56 11 -46 19 -36 19 25 0 32 -1 59 -1
59 -1 0 -7 -13 -13 -28z"/>
<path d="M2445 3210 c0 -61 9 -70 20 -21 4 18 1 40 -7 55 -12 23 -13 21 -13
-34z"/>
<path d="M1330 3214 c0 -27 4 -43 10 -39 6 3 10 13 10 21 0 8 9 14 19 14 20 0
35 25 25 41 -3 5 -18 9 -35 9 -28 0 -29 -2 -29 -46z m50 21 c0 -8 -7 -15 -15
-15 -8 0 -15 7 -15 15 0 8 7 15 15 15 8 0 15 -7 15 -15z"/>
<path d="M1734 3248 c-4 -6 4 -21 20 -33 19 -15 24 -25 17 -30 -7 -4 -18 -1
-26 5 -9 7 -15 8 -15 2 0 -13 26 -23 45 -16 23 9 18 33 -10 46 -28 12 -23 32
6 25 11 -3 17 -1 13 4 -8 13 -41 11 -50 -3z"/>
<path d="M2142 3227 c-17 -46 -16 -66 2 -42 8 11 12 25 9 31 -2 7 0 15 6 19 6
3 11 -2 11 -12 0 -22 17 -50 25 -42 7 8 -23 79 -33 79 -4 0 -13 -15 -20 -33z"/>
<path d="M1410 3210 c0 -16 5 -30 10 -30 6 0 10 14 10 30 0 17 -4 30 -10 30
-5 0 -10 -13 -10 -30z"/>
<path d="M1445 3219 c-10 -30 16 -55 41 -40 17 11 17 11 -3 6 -20 -5 -23 -2
-23 20 0 22 3 25 21 20 15 -5 19 -4 15 4 -12 19 -44 12 -51 -10z"/>
<path d="M1587 3233 c-4 -3 -7 -16 -7 -29 0 -25 28 -40 44 -24 8 8 6 9 -5 5
-10 -4 -20 -2 -24 4 -4 7 4 11 20 11 21 0 26 4 21 16 -3 9 -6 18 -6 20 0 7
-36 5 -43 -3z m33 -13 c0 -5 -7 -10 -16 -10 -8 0 -12 5 -9 10 3 6 10 10 16 10
5 0 9 -4 9 -10z"/>
<path d="M1651 3203 c1 -28 3 -31 6 -13 3 14 10 31 15 38 8 9 6 12 -6 12 -12
0 -16 -9 -15 -37z"/>
<path d="M1887 3233 c-13 -12 -7 -54 9 -60 23 -8 47 20 39 46 -6 20 -34 28
-48 14z m36 -16 c7 -19 -8 -41 -22 -33 -16 10 -14 46 3 46 8 0 16 -6 19 -13z"/>
<path d="M1955 3215 c7 -33 12 -41 21 -33 3 4 -2 19 -11 35 l-16 28 6 -30z"/>
<path d="M1987 3234 c-10 -11 -9 -36 2 -30 5 3 11 -4 14 -16 7 -27 15 -21 27
21 5 19 5 31 -1 31 -5 0 -9 -10 -9 -22 l-1 -23 -12 23 c-7 12 -16 19 -20 16z"/>
<path d="M2221 3208 c2 -28 2 -29 6 -8 3 14 10 28 17 32 7 5 5 8 -6 8 -14 0
-18 -8 -17 -32z"/>
<path d="M2261 3203 c1 -27 3 -31 6 -13 2 14 12 31 21 38 14 11 13 12 -6 12
-19 0 -22 -5 -21 -37z"/>
<path d="M2310 3231 c0 -6 7 -8 15 -5 8 4 15 2 15 -4 0 -5 -9 -12 -20 -15 -23
-6 -26 -22 -6 -30 10 -4 13 -1 9 9 -3 7 0 14 6 14 6 0 11 -4 11 -10 0 -5 5
-10 11 -10 6 0 9 12 7 28 -2 19 -9 28 -25 30 -13 2 -23 -1 -23 -7z"/>
<path d="M2376 3219 c4 -13 8 -34 9 -46 0 -34 10 -28 23 16 16 51 15 62 -3 31
-10 -18 -14 -20 -15 -8 0 9 -5 20 -11 24 -8 4 -9 -1 -3 -17z"/>
<path d="M1493 2700 c-1 -30 1 -47 4 -37 5 18 5 18 25 0 21 -18 21 -18 9 4 -6
12 -8 30 -4 40 6 16 5 16 -9 5 -14 -12 -17 -10 -21 15 -2 15 -4 3 -4 -27z"/>
<path d="M1782 2700 c0 -39 2 -47 7 -26 9 42 29 44 34 4 l4 -33 1 38 c2 30 -1
37 -17 37 -11 0 -22 8 -24 18 -3 9 -5 -8 -5 -38z"/>
<path d="M2330 2700 c0 -27 5 -50 10 -50 6 0 10 23 10 50 0 28 -4 50 -10 50
-5 0 -10 -22 -10 -50z"/>
<path d="M1300 2696 c0 -25 5 -46 10 -46 6 0 10 9 10 19 0 13 8 21 23 23 14 2
22 10 22 23 0 15 -8 21 -32 23 -33 3 -33 3 -33 -42z m50 19 c0 -8 -7 -15 -15
-15 -8 0 -15 7 -15 15 0 8 7 15 15 15 8 0 15 -7 15 -15z"/>
<path d="M1704 2729 c-3 -6 6 -21 21 -33 20 -16 25 -25 16 -30 -6 -4 -18 -2
-26 4 -10 8 -15 9 -15 2 0 -13 36 -26 50 -17 17 10 11 34 -10 45 -26 14 -26
34 0 27 11 -3 18 -1 14 4 -7 13 -41 11 -50 -2z"/>
<path d="M2061 2693 c2 -46 2 -46 8 -13 l7 35 17 -32 c24 -45 37 -41 37 12 0
49 -16 62 -22 18 l-4 -28 -14 28 c-20 40 -30 33 -29 -20z"/>
<path d="M1393 2685 c0 -22 2 -30 4 -17 2 12 2 30 0 40 -3 9 -5 -1 -4 -23z"/>
<path d="M1421 2702 c-17 -32 25 -72 44 -41 4 6 0 9 -11 7 -14 -2 -20 4 -22
21 -3 20 0 23 17 18 12 -3 19 -1 15 4 -9 15 -33 10 -43 -9z"/>
<path d="M1557 2714 c-12 -12 -8 -41 8 -54 13 -10 18 -11 28 -1 9 10 8 11 -5
6 -11 -4 -18 -2 -18 4 0 6 9 11 21 11 14 0 19 5 17 18 -3 17 -38 29 -51 16z
m33 -14 c0 -5 -4 -10 -10 -10 -5 0 -10 5 -10 10 0 6 5 10 10 10 6 0 10 -4 10
-10z"/>
<path d="M1620 2685 c0 -19 5 -35 10 -35 6 0 10 13 10 29 0 16 6 32 13 34 6 3
2 6 -10 6 -20 1 -23 -4 -23 -34z"/>
<path d="M1857 2714 c-23 -23 7 -69 37 -58 25 10 17 58 -9 62 -12 2 -24 0 -28
-4z m40 -20 c8 -21 -13 -42 -28 -27 -13 13 -5 43 11 43 6 0 13 -7 17 -16z"/>
<path d="M1926 2693 c10 -42 22 -49 30 -18 l7 28 12 -29 c12 -30 18 -26 29 19
4 19 3 26 -4 22 -5 -3 -10 -14 -11 -23 0 -12 -3 -10 -10 6 -10 25 -29 21 -30
-6 0 -12 -3 -11 -9 6 -13 31 -22 28 -14 -5z"/>
<path d="M2153 2690 c2 -29 6 -35 25 -36 19 -1 22 3 21 35 -1 36 -1 36 -8 6
-3 -16 -11 -30 -16 -30 -5 0 -13 14 -17 30 -6 29 -6 29 -5 -5z"/>
<path d="M2221 2683 c1 -36 2 -36 8 -9 9 43 31 45 32 4 l1 -33 7 29 c9 41 31
46 31 7 0 -17 5 -31 11 -31 6 0 9 14 7 33 -3 31 -5 32 -50 35 l-48 2 1 -37z"/>
<path d="M2371 2702 c11 -17 10 -24 -2 -38 -12 -15 -12 -17 1 -12 19 6 20 60
2 66 -11 3 -11 0 -1 -16z"/>
<path d="M2412 2703 c-18 -33 24 -74 43 -43 3 5 0 7 -8 4 -8 -3 -18 -1 -22 5
-3 7 3 11 15 11 15 0 20 5 18 17 -5 25 -35 28 -46 6z m33 -3 c-3 -5 -10 -10
-16 -10 -5 0 -9 5 -9 10 0 6 7 10 16 10 8 0 12 -4 9 -10z"/>
<path d="M2481 2683 c1 -28 3 -31 6 -13 3 14 10 31 15 38 8 9 6 12 -6 12 -12
0 -16 -9 -15 -37z"/>
<path d="M1401 2173 c0 -39 2 -44 9 -25 5 12 18 22 29 22 11 0 23 5 26 10 10
16 -15 40 -41 40 -22 0 -24 -4 -23 -47z m47 19 c2 -7 -6 -12 -17 -12 -21 0
-27 11 -14 24 9 9 26 2 31 -12z"/>
<path d="M1580 2175 c0 -25 5 -45 10 -45 6 0 10 8 10 18 1 16 1 16 14 0 7 -10
17 -18 21 -18 4 0 2 7 -5 15 -7 8 -9 23 -4 37 6 20 5 21 -10 9 -14 -12 -16
-11 -16 8 0 11 -4 21 -10 21 -5 0 -10 -20 -10 -45z"/>
<path d="M1807 2214 c-15 -15 -6 -35 19 -44 30 -12 22 -34 -9 -24 -17 5 -19 3
-11 -6 16 -16 48 -9 52 13 2 11 -6 21 -24 27 -20 8 -24 14 -16 22 8 8 16 7 28
-3 15 -12 17 -12 12 1 -5 16 -39 25 -51 14z"/>
<path d="M1882 2175 c0 -39 2 -44 7 -21 8 39 24 39 33 1 6 -29 6 -29 5 5 -1
24 -7 35 -17 35 -8 0 -18 7 -22 15 -4 8 -6 -7 -6 -35z"/>
<path d="M2150 2175 c0 -40 2 -45 23 -45 29 0 47 18 47 45 0 27 -18 45 -47 45
-21 0 -23 -5 -23 -45z m54 13 c7 -12 6 -21 -3 -32 -21 -25 -31 -19 -31 20 0
37 14 42 34 12z"/>
<path d="M2308 2208 c-6 -19 5 -71 17 -75 13 -4 11 65 -2 78 -7 7 -12 6 -15
-3z"/>
<path d="M1520 2185 c-6 -8 -9 -23 -5 -35 7 -21 39 -27 51 -9 4 8 0 9 -15 4
-18 -5 -21 -2 -21 20 0 22 3 25 21 20 15 -5 19 -4 15 4 -10 15 -31 14 -46 -4z"/>
<path d="M1654 2186 c-10 -26 1 -51 24 -54 12 -2 22 1 22 7 0 6 -6 8 -14 5 -8
-3 -17 -1 -21 5 -4 7 4 11 19 11 28 0 33 9 14 28 -16 16 -37 15 -44 -2z m36
-6 c0 -5 -7 -10 -16 -10 -8 0 -12 5 -9 10 3 6 10 10 16 10 5 0 9 -4 9 -10z"/>
<path d="M1721 2163 c2 -31 3 -33 6 -10 2 15 9 27 14 27 5 0 9 5 9 10 0 6 -7
10 -15 10 -11 0 -15 -10 -14 -37z"/>
<path d="M1954 2186 c-10 -26 1 -51 23 -54 14 -2 23 3 28 18 12 37 -38 71 -51
36z m39 -9 c3 -8 1 -20 -4 -28 -11 -19 -34 3 -26 25 8 20 23 21 30 3z"/>
<path d="M2024 2180 c3 -14 6 -31 6 -37 0 -21 18 -14 26 9 l7 23 9 -25 c7 -20
11 -22 18 -10 5 8 9 24 9 35 -1 19 -1 19 -6 1 -5 -18 -6 -18 -19 5 l-14 24 -6
-24 -7 -23 -14 23 -14 24 5 -25z"/>
<path d="M2245 2191 c-3 -7 0 -8 9 -5 9 3 16 1 16 -5 0 -6 -7 -11 -15 -11 -8
0 -15 -9 -15 -20 0 -15 7 -20 26 -20 23 0 25 3 22 32 -3 33 -29 50 -43 29z
m30 -41 c-3 -5 -10 -10 -16 -10 -5 0 -9 5 -9 10 0 6 7 10 16 10 8 0 12 -4 9
-10z"/>
<path d="M2362 2191 c-22 -13 -11 -56 16 -59 12 -2 22 1 22 7 0 6 -7 8 -15 5
-8 -4 -15 -1 -15 5 0 6 9 11 20 11 23 0 26 10 8 28 -14 14 -19 15 -36 3z m28
-11 c0 -5 -4 -10 -10 -10 -5 0 -10 5 -10 10 0 6 5 10 10 10 6 0 10 -4 10 -10z"/>
<path d="M1480 2160 c0 -16 5 -30 10 -30 6 0 10 14 10 30 0 17 -4 30 -10 30
-5 0 -10 -13 -10 -30z"/>
<path d="M1271 1653 c1 -27 3 -40 6 -30 2 9 13 17 23 17 9 0 23 7 30 15 17 20
-3 45 -36 45 -22 0 -24 -4 -23 -47z m47 19 c2 -7 -6 -12 -17 -12 -21 0 -27 11
-14 24 9 9 26 2 31 -12z"/>
<path d="M1450 1655 c0 -25 5 -45 10 -45 6 0 10 8 10 18 1 16 1 16 11 0 5 -10
14 -18 20 -18 5 0 4 9 -3 19 -9 15 -9 23 1 35 16 19 1 22 -17 4 -9 -9 -12 -7
-12 10 0 12 -4 22 -10 22 -5 0 -10 -20 -10 -45z"/>
<path d="M1677 1694 c-14 -15 -6 -35 18 -44 14 -5 25 -14 25 -20 0 -13 -37
-13 -43 0 -3 6 -4 5 -3 -2 2 -7 13 -13 27 -13 34 0 36 29 3 44 -20 9 -24 15
-16 23 8 8 16 7 28 -3 15 -12 17 -12 12 1 -5 16 -39 25 -51 14z"/>
<path d="M1752 1655 c0 -39 2 -44 7 -21 8 39 24 39 33 1 6 -29 6 -29 5 5 -1
24 -7 35 -17 35 -8 0 -18 7 -22 15 -4 8 -6 -7 -6 -35z"/>
<path d="M2020 1655 c0 -40 2 -45 23 -45 29 0 47 18 47 45 0 27 -18 45 -47 45
-21 0 -23 -5 -23 -45z m50 16 c12 -23 3 -51 -16 -51 -9 0 -14 12 -14 35 0 39
14 46 30 16z"/>
<path d="M2179 1686 c-3 -3 -3 -21 -1 -41 6 -47 27 -46 26 2 -1 34 -12 51 -25
39z"/>
<path d="M2288 1685 c-8 -8 6 -68 17 -72 6 -2 10 14 9 34 -1 34 -13 51 -26 38z"/>
<path d="M1350 1645 c0 -19 5 -35 10 -35 6 0 10 16 10 35 0 19 -4 35 -10 35
-5 0 -10 -16 -10 -35z"/>
<path d="M1390 1665 c-6 -8 -9 -23 -5 -35 7 -21 39 -27 51 -9 4 8 0 9 -15 4
-17 -5 -21 -2 -21 14 0 15 6 21 23 21 18 0 19 2 7 10 -20 13 -26 12 -40 -5z"/>
<path d="M1532 1671 c-23 -14 -10 -56 18 -58 l25 -3 -25 12 -25 11 23 5 c15 2
22 9 20 19 -4 20 -19 26 -36 14z m23 -11 c3 -5 -1 -10 -10 -10 -9 0 -13 5 -10
10 3 6 8 10 10 10 2 0 7 -4 10 -10z"/>
<path d="M1591 1641 c2 -30 3 -32 6 -8 2 15 9 27 14 27 5 0 9 4 9 8 0 5 -7 9
-15 9 -11 0 -15 -10 -14 -36z"/>
<path d="M1832 1671 c-8 -4 -12 -19 -10 -32 2 -18 9 -24 28 -24 28 0 39 27 20
50 -14 17 -20 18 -38 6z m28 -32 c0 -10 -7 -19 -15 -19 -15 0 -21 31 -9 43 11
10 24 -3 24 -24z"/>
<path d="M1894 1660 c3 -14 6 -31 6 -37 0 -7 4 -13 9 -13 12 0 35 59 27 67 -4
4 -10 -3 -13 -16 l-6 -23 -14 23 -14 24 5 -25z"/>
<path d="M1960 1659 c0 -11 -4 -17 -10 -14 -5 3 -10 -1 -10 -9 0 -29 18 -26
29 6 13 38 13 38 1 38 -5 0 -10 -9 -10 -21z"/>
<path d="M2114 1669 c-5 -8 -2 -10 8 -6 25 9 30 -5 7 -17 -29 -15 -26 -30 6
-34 24 -3 26 -1 23 30 -3 34 -29 50 -44 27z m31 -39 c-3 -5 -10 -10 -16 -10
-5 0 -9 5 -9 10 0 6 7 10 16 10 8 0 12 -4 9 -10z"/>
<path d="M2230 1665 c-18 -22 -8 -50 20 -52 15 -1 18 0 8 3 -24 7 -23 24 2 24
23 0 26 10 8 28 -16 16 -23 15 -38 -3z m27 -11 c-3 -3 -12 -4 -19 -1 -8 3 -5
6 6 6 11 1 17 -2 13 -5z"/>
<path d="M2343 1645 c0 -22 2 -30 4 -17 2 12 2 30 0 40 -3 9 -5 -1 -4 -23z"/>
<path d="M2371 1641 c1 -36 1 -36 8 -6 3 17 11 30 16 30 5 0 13 -13 16 -30 l7
-30 1 28 c1 16 7 27 15 27 8 0 17 -12 19 -27 4 -21 4 -19 3 7 -1 34 -2 35 -43
36 -43 0 -43 0 -42 -35z"/>
<path d="M2490 1665 c-18 -22 -8 -50 20 -52 15 -1 18 0 8 3 -24 7 -23 24 2 24
23 0 26 10 8 28 -16 16 -23 15 -38 -3z m25 -5 c3 -5 -1 -10 -10 -10 -9 0 -13
5 -10 10 3 6 8 10 10 10 2 0 7 -4 10 -10z"/>
<path d="M2460 1171 c-14 -28 -12 -74 5 -97 13 -17 13 -16 3 13 -9 23 -9 41
-1 67 12 40 9 47 -7 17z"/>
<path d="M1137 1173 c-11 -10 -8 -83 3 -83 6 0 10 6 10 14 0 8 10 16 22 18 26
3 37 36 16 49 -16 10 -42 12 -51 2z m48 -23 c0 -8 -8 -16 -17 -18 -13 -2 -18
3 -18 18 0 15 5 20 18 18 9 -2 17 -10 17 -18z"/>
<path d="M1322 1135 c-1 -33 1 -45 7 -36 8 13 12 13 27 0 16 -13 16 -12 5 9
-6 12 -9 28 -5 35 6 8 3 8 -8 -1 -14 -12 -17 -10 -21 15 -2 17 -5 8 -5 -22z"/>
<path d="M1542 1168 c-13 -16 -5 -32 21 -41 28 -10 21 -30 -9 -23 -17 5 -23 3
-19 -4 10 -16 52 -12 59 5 4 10 -3 20 -19 27 -14 6 -25 14 -25 18 0 15 14 19
28 7 13 -10 14 -9 10 3 -6 20 -32 24 -46 8z"/>
<path d="M1612 1135 c0 -35 2 -43 7 -26 9 34 31 39 31 7 0 -14 5 -26 10 -26 6
0 10 11 10 25 0 18 -7 28 -24 35 -13 5 -26 15 -29 22 -3 7 -5 -9 -5 -37z"/>
<path d="M1890 1135 c0 -41 2 -45 25 -45 22 0 45 24 45 49 0 16 -30 41 -51 41
-16 0 -19 -7 -19 -45z m48 -4 c-4 -38 -38 -42 -38 -3 0 34 7 43 27 35 8 -3 13
-16 11 -32z"/>
<path d="M2500 1165 c-14 -17 0 -21 17 -4 8 8 13 7 18 -1 4 -7 -5 -24 -21 -41
l-28 -29 35 1 c19 1 26 3 17 6 -15 4 -15 6 0 34 15 26 15 31 2 39 -20 13 -26
12 -40 -5z"/>
<path d="M2581 1145 c-20 -34 -20 -35 -1 -35 10 0 21 -6 23 -12 10 -23 24 10
19 42 -6 43 -17 45 -41 5z m19 -10 c0 -8 -4 -15 -10 -15 -5 0 -7 7 -4 15 4 8
8 15 10 15 2 0 4 -7 4 -15z"/>
<path d="M2653 1150 c9 -23 8 -38 -1 -62 -10 -30 -10 -31 3 -14 22 29 18 106
-5 106 -5 0 -3 -13 3 -30z"/>
<path d="M2047 1163 c-6 -11 4 -73 12 -73 7 0 6 68 -2 76 -3 3 -7 2 -10 -3z"/>
<path d="M2159 1165 c-7 -6 2 -75 10 -75 3 0 6 15 6 34 0 34 -7 51 -16 41z"/>
<path d="M1222 1120 c0 -19 2 -27 5 -17 2 9 2 25 0 35 -3 9 -5 1 -5 -18z"/>
<path d="M1252 1123 c2 -20 9 -29 26 -31 12 -2 22 1 22 6 0 6 -9 8 -20 5 -16
-4 -20 0 -20 17 0 17 4 21 20 17 11 -3 20 -1 20 4 0 5 -12 9 -26 9 -22 0 -25
-4 -22 -27z"/>
<path d="M1385 1140 c-12 -19 6 -50 28 -49 17 1 18 2 5 6 -24 6 -23 23 2 23
11 0 20 7 20 15 0 17 -45 21 -55 5z m42 -6 c-3 -3 -12 -4 -19 -1 -8 3 -5 6 6
6 11 1 17 -2 13 -5z"/>
<path d="M1461 1118 c2 -28 2 -29 6 -8 3 14 10 28 17 32 7 5 5 8 -6 8 -14 0
-18 -8 -17 -32z"/>
<path d="M1685 1140 c-3 -6 -3 -19 0 -31 10 -31 49 -21 53 14 3 23 0 27 -22
27 -14 0 -28 -5 -31 -10z m45 -20 c0 -11 -6 -20 -14 -20 -18 0 -29 16 -21 30
11 18 35 11 35 -10z"/>
<path d="M1761 1138 c-2 -24 10 -49 20 -42 5 3 9 12 9 20 0 8 -4 13 -9 9 -5
-3 -12 3 -14 12 -4 16 -5 16 -6 1z"/>
<path d="M1790 1145 c0 -2 5 -16 12 -30 12 -27 28 -33 28 -11 0 8 3 23 6 33 3
10 -2 7 -10 -7 -15 -25 -15 -25 -16 -2 0 12 -4 22 -10 22 -5 0 -10 -2 -10 -5z"/>
<path d="M2003 1142 c4 -5 -3 -12 -14 -15 -29 -8 -19 -31 15 -35 25 -3 27 -1
24 24 -2 15 -9 30 -17 32 -8 3 -11 0 -8 -6z m7 -32 c0 -5 -7 -10 -16 -10 -8 0
-12 5 -9 10 3 6 10 10 16 10 5 0 9 -4 9 -10z"/>
<path d="M2086 1134 c-8 -22 11 -44 38 -43 20 2 20 2 -1 6 -28 5 -30 23 -3 23
11 0 20 7 20 15 0 8 -5 15 -11 15 -5 0 -7 -4 -4 -10 3 -5 -1 -10 -10 -10 -9 0
-13 5 -10 10 3 6 2 10 -3 10 -6 0 -13 -7 -16 -16z"/>
<path d="M2202 1120 c0 -19 2 -27 5 -17 2 9 2 25 0 35 -3 9 -5 1 -5 -18z"/>
<path d="M2230 1120 c0 -16 5 -30 10 -30 6 0 10 11 10 25 0 14 5 25 10 25 6 0
10 -11 10 -25 0 -14 5 -25 10 -25 6 0 10 11 10 25 0 34 28 32 33 -2 4 -26 4
-26 6 5 l1 32 -50 0 c-49 0 -50 -1 -50 -30z"/>
<path d="M2346 1135 c-10 -26 5 -45 33 -44 23 2 24 2 4 6 -28 5 -30 23 -3 23
11 0 20 7 20 15 0 9 -9 15 -24 15 -13 0 -26 -7 -30 -15z m41 -1 c-3 -3 -12 -4
-19 -1 -8 3 -5 6 6 6 11 1 17 -2 13 -5z"/>
<path d="M1201 613 c1 -27 3 -40 6 -30 2 9 13 17 23 17 9 0 24 7 31 16 11 14
10 18 -6 30 -10 8 -27 14 -37 14 -15 0 -18 -8 -17 -47z m47 15 c-3 -7 -11 -13
-18 -13 -7 0 -15 6 -17 13 -3 7 4 12 17 12 13 0 20 -5 18 -12z"/>
<path d="M1380 616 c0 -25 5 -46 10 -46 6 0 10 5 10 11 0 8 4 8 13 1 10 -9 13
-4 13 23 0 27 -3 32 -13 23 -10 -8 -13 -7 -13 5 0 9 -4 19 -10 22 -6 4 -10
-12 -10 -39z"/>
<path d="M1613 653 c-21 -8 -15 -33 12 -45 14 -6 25 -16 25 -21 0 -5 -11 -7
-25 -5 -14 3 -25 1 -25 -3 0 -5 14 -9 30 -9 23 0 30 4 30 20 0 11 -4 20 -8 20
-5 0 -17 7 -28 16 -18 15 -18 15 9 11 29 -5 37 7 11 17 -9 3 -16 6 -17 5 -1 0
-8 -3 -14 -6z"/>
<path d="M1683 615 c0 -27 2 -38 4 -22 2 15 10 27 18 27 8 0 16 -12 18 -27 4
-26 4 -26 6 5 1 25 -3 32 -18 32 -11 0 -22 8 -24 18 -3 9 -5 -5 -4 -33z"/>
<path d="M1957 653 c-4 -3 -7 -24 -7 -45 0 -38 1 -39 33 -36 27 3 32 7 35 33
5 38 -38 72 -61 48z m48 -23 c10 -16 -5 -50 -21 -50 -9 0 -14 11 -14 30 0 30
21 42 35 20z"/>
<path d="M2261 613 c1 -27 3 -40 6 -30 5 21 22 22 29 2 10 -26 19 -16 21 22 2
38 -9 53 -39 53 -15 0 -18 -8 -17 -47z m43 18 c3 -5 -1 -12 -10 -15 -22 -9
-24 -8 -24 9 0 16 25 21 34 6z"/>
<path d="M2110 610 c0 -26 5 -40 13 -40 9 0 11 12 9 40 -2 22 -8 40 -13 40 -5
0 -9 -18 -9 -40z"/>
<path d="M1521 602 c1 -21 3 -29 6 -17 3 11 9 25 14 31 6 8 4 14 -6 18 -12 4
-15 -2 -14 -32z"/>
<path d="M1825 620 c2 -14 5 -31 5 -37 0 -22 16 -14 28 12 15 32 15 48 2 40
-5 -3 -10 -16 -10 -28 -1 -19 -3 -18 -16 8 -12 26 -14 27 -9 5z"/>
<path d="M2054 632 c-6 -4 -11 -19 -12 -34 -1 -24 2 -28 23 -28 21 0 25 5 25
29 0 29 -18 45 -36 33z m23 -18 c-3 -3 -12 -4 -19 -1 -8 3 -5 6 6 6 11 1 17
-2 13 -5z m-2 -24 c3 -5 -1 -10 -10 -10 -9 0 -13 5 -10 10 3 6 8 10 10 10 2 0
7 -4 10 -10z"/>
<path d="M2503 632 c-31 -5 -34 -62 -3 -62 27 0 25 -18 -2 -23 -21 -4 -20 -4
3 -6 29 -1 39 14 39 59 0 33 -6 38 -37 32z m17 -32 c0 -11 -7 -20 -15 -20 -8
0 -15 9 -15 20 0 11 7 20 15 20 8 0 15 -9 15 -20z"/>
<path d="M1280 600 c0 -16 5 -30 10 -30 6 0 10 14 10 30 0 17 -4 30 -10 30 -5
0 -10 -13 -10 -30z"/>
<path d="M1314 615 c-4 -8 -4 -22 0 -30 6 -17 42 -20 51 -5 3 5 0 7 -9 4 -21
-8 -36 4 -29 22 3 9 13 14 24 11 11 -3 17 -1 13 4 -9 15 -44 10 -50 -6z"/>
<path d="M1454 615 c-10 -24 4 -45 28 -44 17 1 18 2 6 6 -24 6 -23 23 2 23 13
0 18 5 14 15 -4 8 -15 15 -25 15 -11 0 -22 -7 -25 -15z m33 -1 c-3 -3 -12 -4
-19 -1 -8 3 -5 6 6 6 11 1 17 -2 13 -5z"/>
<path d="M1757 624 c-4 -4 -7 -18 -7 -31 0 -21 4 -24 28 -21 21 2 27 8 27 28
0 18 -6 26 -20 28 -12 2 -24 0 -28 -4z m33 -24 c0 -11 -7 -20 -15 -20 -8 0
-15 9 -15 20 0 11 7 20 15 20 8 0 15 -9 15 -20z"/>
<path d="M1890 614 c0 -8 -4 -12 -10 -9 -5 3 -10 -1 -10 -9 0 -28 18 -26 29 4
6 18 6 30 0 30 -5 0 -9 -7 -9 -16z"/>
<path d="M2154 616 c-10 -25 3 -46 28 -45 17 1 18 2 6 6 -25 6 -22 23 3 23 27
0 19 24 -9 28 -13 2 -25 -3 -28 -12z"/>
<path d="M2353 623 c18 -4 18 -6 -2 -20 -26 -18 -19 -33 15 -33 22 0 25 4 22
28 -2 21 -9 27 -28 29 -16 1 -19 0 -7 -4z m17 -33 c0 -5 -4 -10 -10 -10 -5 0
-10 5 -10 10 0 6 5 10 10 10 6 0 10 -4 10 -10z"/>
<path d="M2411 598 c2 -31 2 -31 6 -5 2 15 10 27 18 27 8 0 16 -12 18 -27 4
-26 4 -26 6 5 1 28 -2 32 -24 32 -22 0 -25 -4 -24 -32z"/>
<path d="M2554 616 c-10 -25 3 -46 28 -45 17 1 18 2 6 6 -25 6 -22 23 3 23 27
0 19 24 -9 28 -13 2 -25 -3 -28 -12z"/>
</g>
</svg>
